<svg xmlns="http://www.w3.org/2000/svg" viewBox="0 0 576 512"><path d="M398.7 259.7c0 14.4-3.7 35.2-18.2 35.2-3.7 0-7.2-.7-10.2-2.2v-55.9c10.1-10.6 28.4-15.2 28.4 22.9zm95.7-33.4c-8.5 0-13 7.7-14 24.4h27.4c-.4-16.4-4.9-24.4-13.4-24.4zM576 80v352c0 26.5-21.5 48-48 48H48c-26.5 0-48-21.5-48-48V80c0-26.5 21.5-48 48-48h480c26.5 0 48 21.5 48 48zM119.1 284.4c0-39.6-50.4-34.3-50.4-49.4 0-12.6 28.7-4.1 40.4 1.7l4.5-27.9c-32.3-15.5-79.8-10.7-79.8 28.7 0 20.4 12.5 29.4 32.9 36.7 25.3 9.2 19.6 20.9 5.5 20.9-9.5 0-25.2-4.7-35.4-10.7l-4.5 28.2c25.6 14.6 86.8 19.9 86.8-28.2zm54.4-53.6h19.2l4.7-27.7h-23.9v-33.7l-32.2 5.2-4.5 28.4-11.5 2-4.2 25.7h15.5c0 56.9-2.9 73.1 11 84.5 12.1 9.7 32.1 8.3 47.4 4.7v-29.4c-2.2.5-7.5 1.7-11 1.7-13.7.2-10.5-9.4-10.5-61.4zm98-28.4c-15.1-3-25.6 3.7-29.2 14.7l-2.5-14h-32.7v117.4h37.4v-76.3c7.5-9.1 22.2-8.2 26.9-7.2v-34.6zm46.6.7h-37.4v117.4h37.4V203.1zm1-31.4c0-11-8.7-19.7-19.7-19.7s-19.7 8.7-19.7 19.7 8.7 19.9 19.7 19.9 19.7-8.9 19.7-19.9zm116.7 86.8c0-19.9-3.7-35.2-11.2-44.6-6.7-8.7-16-13-27.7-13-10.7 0-20.2 4.5-29.2 14l-2-11.7h-32.9V364l37.4-6.2v-37.7c5.7 1.7 11.7 2.7 17 2.7 9.2 0 22.9-2.5 33.4-14 10.2-10.9 15.2-27.9 15.2-50.3zm59.3-57.6c-31.9 0-51.6 23.4-51.6 61.3 0 78.4 77.1 63.2 95.7 50.6l-4-25.7c-10.8 5.8-51.4 20.1-54.6-13.5h61.8c5.6-37.9-8.8-72.7-47.3-72.7z"/></svg>