<svg xmlns="http://www.w3.org/2000/svg" viewBox="0 0 448 512"><path d="M288.1 244.8c0 13.7-10.1 24.9-22.8 24.9-12.5 0-22.8-11.2-22.8-24.9s10.1-24.9 22.8-24.9c12.7 0 22.8 11.2 22.8 24.9zm-104.6-24.9c-12.8 0-22.8 11.2-22.8 24.9s10.3 24.9 22.8 24.9c12.8 0 22.8-11.2 22.8-24.9.2-13.7-10.1-24.9-22.8-24.9zM420 78.1V480c-56.4-49.9-38.4-33.4-103.9-94.3l11.9 41.4H74c-25.4 0-46-20.6-46-46.1V78.1C28 52.6 48.6 32 73.9 32h300.2c25.3 0 45.9 20.6 45.9 46.1zm-63.8 212.4c0-72.1-32.3-130.6-32.3-130.6-32.3-24.2-62.9-23.5-62.9-23.5l-3.1 3.6c38.1 11.6 55.8 28.4 55.8 28.4-53.2-29.2-115.7-29.2-167.3-6.5-8.3 3.8-13.2 6.5-13.2 6.5s18.6-17.7 58.9-29.3l-2.2-2.7s-30.7-.7-62.9 23.5c0 0-32.3 58.5-32.3 130.6 0 0 18.8 32.5 68.3 34 0 0 8.3-10.1 15-18.6-28.4-8.5-39.2-26.4-39.2-26.4 3.3 2.3 8.7 5.3 9.2 5.6 37.8 21.2 91.5 28.1 139.8 7.8 7.8-2.9 16.6-7.2 25.8-13.2 0 0-11.2 18.4-40.5 26.7 6.7 8.5 14.8 18.1 14.8 18.1 49.2-1.5 68.3-34 68.3-34z"/></svg>