<svg xmlns="http://www.w3.org/2000/svg" viewBox="0 0 496 512"><path d="M496 262.5C497.6 380.8 388.9 504 248 504c-106.7 0-190.9-62.5-229.8-151.7-43-97.7-5.7-251.6 70.3-320.3l-2.7 69.7c3.9-5 32.5-6.4 37.1 0C139 71 190.7 48 232.1 47.2c-15.8 13.3-52.2 61.6-49.2 86.2 20.2 6.4 51.1 6.6 67.4 7.7 5 2.8 4.1 19.6-5.8 33.4 0 0-13 18-48.1 24.3l2.7 41.1-37-7.4c-12.4 31.5 17.4 59.4 48.4 54.2 34.3-5.8 45.9-32 70-30.6 23.8 1.4 33.2 14.6 30.1 27.1 0 0-3.9 14.9-29.6 12.4-21.8 34.5-50.4 53.5-97.3 49.4 71.3 59.1 168.3 5.5 192.6-42.8 24.3-48.1 8-122.1-16.3-142.3 28.7 12.4 43.7 27.6 54.2 55.5 5.5-61.9-22.9-132.1-73.8-173.3C436 70.1 494.3 144.2 496 262.5z"/></svg>