<?xml version="1.0" standalone="no"?>
<!DOCTYPE svg PUBLIC "-//W3C//DTD SVG 20010904//EN"
 "http://www.w3.org/TR/2001/REC-SVG-20010904/DTD/svg10.dtd">
<svg version="1.0" xmlns="http://www.w3.org/2000/svg"
 width="486.000000pt" height="486.000000pt" viewBox="0 0 486.000000 486.000000"
 preserveAspectRatio="xMidYMid meet">
<metadata>
Created by potrace 1.11, written by Peter Selinger 2001-2013
</metadata>
<g transform="translate(0.000000,486.000000) scale(0.100000,-0.100000)"
fill="#000000" stroke="none">
<path d="M2260 4854 c-19 -2 -78 -9 -130 -15 -532 -61 -1068 -327 -1441 -716
-374 -390 -594 -849 -671 -1398 -16 -118 -16 -474 1 -595 76 -553 309 -1028
696 -1415 605 -606 1478 -848 2305 -640 693 175 1274 647 1590 1290 141 288
230 628 242 925 l3 74 -94 18 c-126 23 -207 51 -325 111 -298 152 -518 424
-603 744 -34 131 -44 374 -19 505 30 161 93 315 178 441 22 32 37 64 34 72 -2
7 -47 46 -98 86 -343 266 -732 432 -1162 495 -98 14 -435 26 -506 18z m553
-63 c215 -38 467 -112 467 -136 0 -8 -74 -207 -165 -442 -300 -782 -290 -758
-311 -757 -11 1 -64 14 -119 29 -89 25 -117 28 -255 28 -138 0 -166 -3 -255
-28 -55 -15 -109 -28 -120 -29 -21 -1 2 -56 -319 779 -87 226 -160 413 -163
418 -16 27 372 129 597 156 133 17 509 6 643 -18z m-263 -1315 c42 -3 116 -17
164 -31 366 -106 635 -380 739 -753 18 -66 21 -104 21 -262 0 -158 -3 -196
-21 -262 -105 -377 -384 -656 -761 -761 -66 -18 -104 -21 -262 -21 -158 0
-196 3 -262 21 -118 33 -218 78 -320 146 -211 139 -358 339 -434 593 -36 120
-45 357 -19 485 82 408 386 727 785 824 74 18 222 34 270 29 14 -2 59 -5 100
-8z m-1955 -340 c825 -316 810 -310 809 -331 -1 -11 -14 -65 -29 -120 -25 -89
-28 -117 -28 -255 0 -138 3 -166 28 -255 15 -55 28 -108 29 -119 1 -21 26 -10
-757 -311 -236 -91 -435 -165 -442 -165 -25 0 -99 255 -136 467 -26 152 -36
455 -20 614 15 148 52 327 96 474 38 126 52 158 63 151 4 -2 178 -70 387 -150z
m3329 -197 c71 -129 213 -286 347 -382 138 -98 317 -175 469 -201 l75 -13 -3
-79 c-5 -184 -67 -473 -141 -666 l-10 -26 -143 55 c-701 269 -1054 406 -1061
412 -4 5 3 46 17 94 56 192 56 402 0 594 -14 48 -21 90 -17 94 9 9 412 167
429 168 6 1 23 -22 38 -50z m-1791 -1553 c190 -55 404 -55 594 0 47 14 89 21
93 17 8 -8 122 -301 338 -866 l130 -338 -27 -10 c-129 -50 -308 -96 -486 -126
-153 -25 -533 -25 -690 0 -219 35 -513 119 -507 146 5 23 448 1176 458 1193 7
11 2 11 97 -16z"/>
</g>
</svg>
