<?xml version="1.0" standalone="no"?>
<!DOCTYPE svg PUBLIC "-//W3C//DTD SVG 20010904//EN"
 "http://www.w3.org/TR/2001/REC-SVG-20010904/DTD/svg10.dtd">
<svg version="1.0" xmlns="http://www.w3.org/2000/svg"
 width="300.000000pt" height="300.000000pt" viewBox="0 0 300.000000 300.000000"
 preserveAspectRatio="xMidYMid meet">
<metadata>
Created by potrace 1.11, written by Peter Selinger 2001-2013
</metadata>
<g transform="translate(0.000000,300.000000) scale(0.100000,-0.100000)"
fill="#000000" stroke="none">
<path d="M1115 2665 c-87 -35 -148 -65 -162 -81 -36 -40 -30 -87 33 -245 48
-118 62 -144 88 -160 17 -10 41 -19 53 -19 36 0 305 112 330 137 37 36 30 85
-33 242 -30 76 -64 147 -74 156 -39 35 -86 29 -235 -30z"/>
<path d="M1590 2208 l0 -304 62 -13 c66 -13 124 -39 173 -77 l30 -23 1 77 c2
173 98 364 228 453 20 13 36 27 36 31 0 3 -42 27 -92 52 -103 51 -243 90 -360
101 l-78 7 0 -304z"/>
<path d="M800 2133 c-117 -149 -200 -357 -216 -545 l-7 -78 307 0 306 0 0 24
c0 46 38 146 75 197 l37 52 -213 213 c-118 118 -217 214 -221 214 -4 0 -34
-35 -68 -77z"/>
<path d="M1975 1463 c-21 -90 -39 -137 -75 -184 l-40 -54 214 -214 215 -215
22 20 c42 37 118 146 162 232 37 72 87 204 87 231 0 4 -44 5 -97 3 -163 -7
-306 46 -424 156 l-58 53 -6 -28z"/>
<path d="M551 1334 c-74 -29 -143 -62 -153 -72 -38 -38 -34 -78 26 -232 62
-162 83 -190 144 -190 37 0 272 85 318 115 13 8 28 32 34 53 11 35 8 48 -44
187 -38 99 -65 158 -82 173 -39 35 -90 28 -243 -34z"/>
<path d="M1090 1015 c-117 -117 -211 -217 -209 -222 7 -16 81 -78 148 -123
121 -81 279 -141 408 -155 32 -3 77 -8 101 -11 l42 -5 0 305 0 304 -42 7 c-67
11 -145 44 -192 80 l-43 33 -213 -213z"/>
<path d="M1880 779 c-205 -75 -210 -87 -130 -307 55 -149 86 -192 139 -192 15
0 91 23 167 51 156 57 194 85 194 143 0 51 -97 307 -126 334 -38 34 -90 28
-244 -29z"/>
</g>
</svg>
