<svg id="logo" data-name="Layer 1" xmlns="http://www.w3.org/2000/svg" viewBox="0 0 485.43392 485.51968">
    <defs>
      <style>
      .circle,.a{
        stroke:#000;
      }
      .circle{
        stroke-width:8px;
        fill: transparent;
      }
      .a{
        stroke-width:6px;
      }
      .e{
        fill:#f33;
      }
      .hole {
          fill: transparent;
          stroke: black;
          stroke-width: 6px;
      }

      .shadow,.e{
        stroke:#eb1b22;
      }
      .shadow{
        fill:#c03;
      }
      .b{fill:#fff;}.c{fill:#ccc;}
      </style>
    </defs>
      <title>logo</title>
      <circle class="circle" cx="242.75984" cy="242.75984" r="109.58096"/>

      <path class="hole" d="M595.43144,318.54682a119.72536,119.72536,0,0,1,23.24106-71.04906,238.82429,238.82429,0,0,0-156.71561-58.3059C329.5412,189.19185,222.197,296.536,222.197,428.95169S329.5412,668.71153,461.95689,668.71153c129.39218,0,234.82539-102.503,239.57367-230.73447A120.28869,120.28869,0,0,1,595.43144,318.54682Z" transform="translate(-219.19705 -186.19185)"/>

      <path class="e" d="M407.20241,285.78636l-30.61548-80.04949A239.654,239.654,0,0,0,238.74207,343.58175l80.04949,30.61548A153.70945,153.70945,0,0,1,407.20241,285.78636Z" transform="translate(-219.19705 -186.19185)"/>

      <path class="e" d="M318.79146,483.70617l-80.04939,30.61537a239.65385,239.65385,0,0,0,137.84487,137.845L407.20241,572.117A153.70962,153.70962,0,0,1,318.79146,483.70617Z" transform="translate(-219.19705 -186.19185)"/>

      <path class="e" d="M605.12222,374.19722l3.31417-1.26756a120.18848,120.18848,0,0,1,9.74036-124.73492,238.8054,238.8054,0,0,0-70.84992-42.45787l-30.61548,80.04949A153.70945,153.70945,0,0,1,605.12222,374.19722Z" transform="translate(-219.19705 -186.19185)"/><path class="e" d="M516.71136,572.117l30.61548,80.04949a239.65385,239.65385,0,0,0,137.84487-137.845l-80.04939-30.61537A153.70962,153.70962,0,0,1,516.71136,572.117Z" transform="translate(-219.19705 -186.19185)"/>

      <path class="shadow" d="M500.808,530.535,516.71136,572.117a153.70962,153.70962,0,0,0,88.411-88.41086l-41.58216-15.90335A109.056,109.056,0,0,1,500.808,530.535Z" transform="translate(-219.19705 -186.19185)"/>

      <path class="shadow" d="M423.10576,327.36842l-15.90335-41.58206a153.70945,153.70945,0,0,0-88.41086,88.41086l41.58206,15.90335A109.056,109.056,0,0,1,423.10576,327.36842Z" transform="translate(-219.19705 -186.19185)"/>

      <path class="shadow" d="M516.71136,285.78636,500.808,327.36842a109.05629,109.05629,0,0,1,62.73215,62.73215l41.58206-15.90335A153.70945,153.70945,0,0,0,516.71136,285.78636Z" transform="translate(-219.19705 -186.19185)"/>

      <path class="shadow" d="M360.37362,467.80282l-41.58216,15.90335a153.70962,153.70962,0,0,0,88.411,88.41086L423.10576,530.535A109.056,109.056,0,0,1,360.37362,467.80282Z" transform="translate(-219.19705 -186.19185)"/>

      <path class="b" d="M461.95689,582.20025A152.86862,152.86862,0,0,1,407.20241,572.117l-30.61548,80.04949a239.65178,239.65178,0,0,0,170.7399,0L516.71136,572.117A152.86862,152.86862,0,0,1,461.95689,582.20025Z" transform="translate(-219.19705 -186.19185)"/>

      <path class="c" d="M461.95689,537.70873a108.45023,108.45023,0,0,1-38.85113-7.17377L407.20241,572.117a153.70693,153.70693,0,0,0,109.50895,0L500.808,530.535A108.45023,108.45023,0,0,1,461.95689,537.70873Z" transform="translate(-219.19705 -186.19185)"/>

      <path class="b" d="M461.95689,275.70314a152.86862,152.86862,0,0,1,54.75447,10.08323l30.61548-80.04949a239.65178,239.65178,0,0,0-170.7399,0l30.61548,80.04949A152.86862,152.86862,0,0,1,461.95689,275.70314Z" transform="translate(-219.19705 -186.19185)"/>

      <path class="c" d="M461.95689,320.19465a108.45023,108.45023,0,0,1,38.85113,7.17377l15.90335-41.58206a153.70693,153.70693,0,0,0-109.50895,0l15.90335,41.58206A108.45023,108.45023,0,0,1,461.95689,320.19465Z" transform="translate(-219.19705 -186.19185)"/>

      <path class="b" d="M308.70833,428.95169a152.86862,152.86862,0,0,1,10.08323-54.75447l-80.04949-30.61548a239.65151,239.65151,0,0,0,0,170.7398l80.04939-30.61537A152.86856,152.86856,0,0,1,308.70833,428.95169Z" transform="translate(-219.19705 -186.19185)"/>

      <path class="c" d="M353.19985,428.95169a108.45024,108.45024,0,0,1,7.17377-38.85113l-41.58206-15.90335a153.70765,153.70765,0,0,0-.0001,109.50895l41.58216-15.90335A108.45024,108.45024,0,0,1,353.19985,428.95169Z" transform="translate(-219.19705 -186.19185)"/>

      <path class="b" d="M608.43639,372.92966l-3.31417,1.26756a153.70765,153.70765,0,0,1,.0001,109.50895l80.04939,30.61537a238.05345,238.05345,0,0,0,15.54148-76.44837A120.33284,120.33284,0,0,1,608.43639,372.92966Z" transform="translate(-219.19705 -186.19185)"/>

      <path class="c" d="M570.71393,428.95169a108.45024,108.45024,0,0,1-7.17377,38.85113l41.58216,15.90335a153.70765,153.70765,0,0,0-.0001-109.50895l-41.58206,15.90335A108.45024,108.45024,0,0,1,570.71393,428.95169Z" transform="translate(-219.19705 -186.19185)"/>
    </svg>
