<svg xmlns="http://www.w3.org/2000/svg" viewBox="0 0 512 512"><path d="M464 32H48C21.49 32 0 53.49 0 80v64c0 20.928 13.398 38.718 32.081 45.285-.05.899-.081 1.803-.081 2.715v240c0 26.51 21.49 48 48 48h352c26.51 0 48-21.49 48-48V192c0-.912-.031-1.816-.081-2.715C498.602 182.718 512 164.928 512 144V80c0-26.51-21.49-48-48-48zM48 86a6 6 0 0 1 6-6h404a6 6 0 0 1 6 6v52a6 6 0 0 1-6 6H54a6 6 0 0 1-6-6V86zm384 340a6 6 0 0 1-6 6H86a6 6 0 0 1-6-6V198a6 6 0 0 1 6-6h340a6 6 0 0 1 6 6v228zM308 280H204c-6.627 0-12-5.373-12-12v-24c0-6.627 5.373-12 12-12h104c6.627 0 12 5.373 12 12v24c0 6.627-5.373 12-12 12z"/></svg>