<svg xmlns="http://www.w3.org/2000/svg" viewBox="0 0 256 512"><path d="M218.782 266.341c-20.786-16.38-47.256-26.923-72.855-37.118-48.469-19.304-77.898-33.306-77.898-64.924 0-12.836 5.969-24.69 16.805-33.379 12.418-9.957 29.923-15.219 50.621-15.219 42.441 0 73.642 28.2 73.928 28.462a11.86 11.86 0 0 0 9.773 3.055 11.916 11.916 0 0 0 8.522-5.704l17.572-29.494c2.775-4.658 2.097-10.612-1.653-14.517-1.326-1.381-31.23-31.907-85.576-38.567V12c0-6.627-5.335-12-11.916-12h-29.82c-6.581 0-11.916 5.373-11.916 12v48.738c-26.955 5.159-50.139 16.64-67.513 33.524-19.647 19.092-30.466 44.346-30.466 71.11 0 32.177 12.571 57.836 38.432 78.443 21.475 17.112 48.609 28.074 74.85 38.674 46.803 18.907 75.222 32.442 75.222 60.921 0 36.707-32.744 53.426-63.167 53.426-51.97 0-88.958-37.173-89.459-37.684a11.877 11.877 0 0 0-9.085-3.596 11.888 11.888 0 0 0-8.721 4.468l-21.833 27.35c-3.637 4.557-3.485 11.09.362 15.47 1.545 1.759 36.761 41.065 101.378 50.01V500c0 6.628 5.335 12 11.916 12h29.82c6.58 0 11.916-5.372 11.916-12v-47.395c27.643-4.67 51.23-16.761 68.688-35.315C245.597 397.215 256 370.405 256 341.802c0-31.041-12.175-55.725-37.218-75.461z"/></svg>