<svg xmlns="http://www.w3.org/2000/svg" viewBox="0 0 512 512"><path d="M488 176h-60.167C440.425 160.774 448 141.255 448 120c0-48.523-39.477-88-88-88-41.987 0-69.013 21.733-104 69.643C221.012 53.733 193.987 32 152 32c-48.523 0-88 39.477-88 88 0 21.255 7.575 40.774 20.167 56H24c-13.255 0-24 10.745-24 24v128c0 13.255 10.745 24 24 24h8v80c0 26.51 21.49 48 48 48h352c26.51 0 48-21.49 48-48v-80h8c13.255 0 24-10.745 24-24V200c0-13.255-10.745-24-24-24zm-212.073-18.975C322.531 87.599 337.998 80 360 80c22.056 0 40 17.944 40 40s-17.944 40-40 40h-86.07l1.997-2.975zM152 80c22.002 0 37.469 7.599 84.073 77.025L238.07 160H152c-22.056 0-40-17.944-40-40s17.944-40 40-40zM80 432v-80h128v-48H48v-80h184v208H80zm384-128H304v48h128v80H280V224h184v80z"/></svg>