<svg xmlns="http://www.w3.org/2000/svg" viewBox="0 0 576 512"><path d="M400 24c-41.4 0-80.6 22.8-112 49.8-31.3-27-70.6-49.8-112-49.8C80.8 24 24 84.1 24 174.8c0 23.6 6.4 45.8 15.3 65.2 8.8 19.1 20 35.5 29.9 48 11.2 14.1 20.8 23.2 23.3 25.6l164.7 161.8c17.1 16.8 44.4 16.8 61.5 0l164.7-161.5.4-.4c8-7.8 15.8-16.3 23.1-25.5 11.6-14.6 21.9-30.9 29.7-48 9.5-20.8 15.3-43 15.3-65.2C552 80.5 491.7 24 400 24zM288 438.3L135 288h49.2c4.4 0 8.5-2.4 10.5-6.3l28-65.4 71.7 161.3c4.3 8.2 15.8 8.6 20.8.8L373.4 264l10.6 19.5c2.3 2.8 5.7 4.5 9.3 4.5h48L288 438.3zM407.5 240l-28.3-43.5c-5.2-6.4-15.1-5.8-19.5 1.1l-51.8 102.6-74.1-165.8c-4.5-8.5-16.6-8.5-21.2-.1L162.7 240H93.8C81 219.5 72 196.4 72 174.8 72 107.9 110.2 72 176 72c44.4 0 88 44.1 107.7 64.1 2.3 2.4 6.2 2.4 8.5 0C313.3 114.9 356 72 400 72c65.9 0 104 35.9 104 102.8 0 22.3-9 44.9-21.9 65.2h-74.6z"/></svg>