<svg xmlns="http://www.w3.org/2000/svg" viewBox="0 0 576 512"><path d="M487.8 80c30.3 0 40.2 73.3 40.2 94.5 0 156.3-157.8 238-267.9 238-68.5 0-125.9-31.5-125.9-31.5-13.4 0-29.5 51-52.8 51C59 432 48 413.1 48 401.7c0-26 53-46.2 53-60.7 0 0-10.4-16.6-10.4-46.5 0-79.5 67.8-136.2 143.8-159.8 54.9-17 171.7 2.8 208.9-30.2 14.8-12.8 22-24.5 44.5-24.5m0-48c-43.2 0-62.4 24.5-75.9 36.2-17.4 15.1-137.1 3.8-191.7 20.7-96.4 29.8-177.6 103.9-177.6 205.6 0 12.9 1.4 24.2 3.5 33.9C21.8 346.9 0 368.9 0 401.7 0 441 33.8 480 81.5 480c28.7 0 49.5-17.8 65.9-40.9 35.9 13.3 74.3 21.4 112.7 21.4 126.8 0 315.9-93.7 315.9-286C576 112.7 550.9 32 487.8 32zM173.9 333.3c50.4-67.2 114.2-96.8 205.7-90.1 13.2 1 24.7-9 25.7-22.2s-9-24.7-22.2-25.7c-109.2-8-188.3 30-247.6 109.1-8 10.6-5.8 25.6 4.8 33.6s25.6 5.9 33.6-4.7z"/></svg>