<svg xmlns="http://www.w3.org/2000/svg" viewBox="0 0 512 512"><path d="M279.432 402.687l34.679 34.679C243.472 484.536 158.618 512 67.501 512c-21.429 0-39.76-14.583-44.579-35.463L1.18 382.287c-4.983-21.596 6.185-43.606 26.556-52.338 0 0 102.555-43.943 103.091-44.148 14.105-5.417 30.106-1.612 40.79 9.072l79.049 79.049c-14.801 8.793-30.842 17.186-48.37 25.409l-55.716-68.094-98.212 42.091 20.921 90.669c77.275-.339 149.315-22.776 210.143-61.31zm229.054 71.857c4.686 4.686 4.686 12.284 0 16.971l-16.971 16.971c-4.686 4.686-12.284 4.686-16.97 0L3.515 37.456c-4.686-4.686-4.686-12.284 0-16.971l16.971-16.97c4.686-4.686 12.284-4.686 16.971 0l265.258 265.258a310.201 310.201 0 0 0 36.832-53.374l-40.016-32.741c-15.685-12.832-21.063-34.804-13.081-53.43l43.5-101.492c8.729-20.371 30.739-31.541 52.339-26.556l94.248 21.741C497.417 27.739 512 46.071 512 67.5c0 114.321-43.046 218.295-113.663 296.895l110.149 110.149zM336.814 302.872l27.527 27.527c61.648-69.558 99.219-160.942 99.655-261.11l-90.669-20.921-42.092 98.212 68.097 55.715c-18.994 40.484-38.888 73.048-62.518 100.577z"/></svg>