<svg xmlns="http://www.w3.org/2000/svg" viewBox="0 0 512 512"><path d="M476.536 22.921L382.288 1.18c-21.6-4.984-43.609 6.185-52.339 26.556l-43.5 101.492c-7.982 18.626-2.604 40.598 13.081 53.43l40.016 32.741c-28.537 52.375-71.771 95.609-124.147 124.147l-32.741-40.015c-12.832-15.685-34.804-21.063-53.43-13.081L27.736 329.949C7.365 338.68-3.804 360.691 1.18 382.287l21.742 94.25C27.74 497.417 46.072 512 67.5 512 312.347 512 512 313.731 512 67.5c0-21.429-14.583-39.761-35.464-44.579zM69.289 463.996l-20.921-90.669 98.212-42.091 55.716 68.094c98.805-46.353 150.588-98.036 197.036-197.035l-68.097-55.715 42.092-98.212 90.669 20.921c-.947 217.588-177.09 393.755-394.707 394.707z"/></svg>