<svg xmlns="http://www.w3.org/2000/svg" viewBox="0 0 512 512"><path d="M256 48c25.8 0 64 29.8 64 58.5 0 22.5-5.5 32.5-14.3 45.5H334c28.7 0 52 23.3 52 52 0 18.6-7.8 36-23.2 51.8l-.2.2H373c28.7 0 52 23.3 52 52 0 13.5-4.1 32.9-22.4 52h9.4c28.7 0 52 23.3 52 52s-23.3 52-52 52H100c-26.9 0-52-24.3-52-52 0-26.9 16-46.2 42.4-51.1.2 0 10.6-2 27.2-5.5-15.4-7-29.8-29.8-29.8-47.4 0-25.5 10.4-41.1 34.6-49.3.2-.1 11.6-3.9 28.6-10.2-12.2-7.3-24.9-22.3-24.9-38 0-24.7 8.4-44.6 31.2-54.2C158.8 155.6 256 138 256 48m0-48h-48v48c0 19.8-7.4 33.8-23.9 45.4-7 4.9-19.1 11.7-36.7 15.9-1.9.5-5 1.2-8.8 2.8-20.9 8.8-37.4 23.7-47.7 42.9-8.6 15.9-12.9 34.5-12.9 55.5 0 5.6.6 11 1.7 16.2-25.9 17.8-39.9 45.8-39.9 81.3 0 7 .9 14.2 2.7 21.4-7.6 5.1-14.3 11.2-20.2 18.2C7.7 365.2 0 387.5 0 412c0 25.8 11 51.5 30.2 70.5C49.1 501.3 74.6 512 100 512h312c55.1 0 100-44.9 100-100 0-33.2-16.3-62.7-41.3-80.9 1.7-8.5 2.3-16.3 2.3-23.1 0-33.3-16.3-62.8-41.4-81 1.6-7.5 2.4-15.2 2.4-23 0-43.2-27.5-80.1-66-94v-3.5C368 49.1 306.4 0 256 0zm-96 352c-6.6 0-10.4 7.5-6.4 12.8C176.9 395.9 214.1 416 256 416s79.1-20.1 102.4-51.2c4-5.3.2-12.8-6.4-12.8H160zm40-128c-26.5 0-48 21.5-48 48s21.5 48 48 48 48-21.5 48-48-21.5-48-48-48zm0 44c-2.2 0-4 1.8-4 4 0 6.6-5.4 12-12 12s-12-5.4-12-12c0-15.4 12.6-28 28-28 6.6 0 12 5.4 12 12s-5.4 12-12 12zm112-44c-26.5 0-48 21.5-48 48s21.5 48 48 48 48-21.5 48-48-21.5-48-48-48zm0 44c-2.2 0-4 1.8-4 4 0 6.6-5.4 12-12 12s-12-5.4-12-12c0-15.4 12.6-28 28-28 6.6 0 12 5.4 12 12s-5.4 12-12 12z"/></svg>