<svg xmlns="http://www.w3.org/2000/svg" viewBox="0 0 512 512"><path d="M464 32H288c-12.296 0-23.507 4.629-32 12.232C247.507 36.629 236.296 32 224 32H48C21.49 32 0 53.49 0 80v176c0 26.51 21.49 48 48 48h21.225c-9.011 6.709-20.734 12.249-35.024 16.538C13.901 326.631 0 345.317 0 366.512v65.478c0 30.142 27.371 52.602 56.685 47.208 108.168-19.901 178.948-85.947 204.574-183.333A47.78 47.78 0 0 0 288 304h21.225c-9.011 6.709-20.734 12.249-35.024 16.538-20.3 6.093-34.201 24.779-34.201 45.974v65.478c0 30.142 27.371 52.602 56.685 47.208C434.829 453.782 512 353.107 512 208V80c0-26.51-21.49-48-48-48zM224 208c0 118.68-57.851 202.263-176 224v-65.488c56.449-16.943 90.755-51.883 94.007-110.512H48V80h176v128zm240 0c0 118.68-57.851 202.263-176 224v-65.488c56.449-16.943 90.755-51.883 94.007-110.512H288V80h176v128z"/></svg>