<svg xmlns="http://www.w3.org/2000/svg" viewBox="0 0 512 512"><path d="M120 333.989V352c0 88.225 75.364 160 168 160s168-71.775 168-160v-99.668c32.267-10.136 55.726-40.16 55.998-75.709.331-43.427-34.65-79.577-78.066-80.601C388.866 94.96 352 131.175 352 176c0 35.82 23.544 66.137 56 76.332V352c0 61.757-53.832 112-120 112s-120-50.243-120-112v-18.011c68.017-11.46 120-70.763 120-141.989V27.488a12 12 0 0 0-9.397-11.714L208.921.288c-6.47-1.438-12.88 2.641-14.317 9.111l-5.207 23.429c-1.438 6.47 2.641 12.88 9.111 14.318L240 56.366v134.41c0 52.852-42.203 96.707-95.053 97.22C91.58 288.513 48 245.25 48 192V56.366l41.492-9.22c6.47-1.438 10.549-7.848 9.111-14.318L93.397 9.399C91.959 2.929 85.549-1.15 79.08.288L9.397 15.774A12 12 0 0 0 0 27.488V192c0 71.226 51.983 130.529 120 141.989zM432 144c17.645 0 32 14.355 32 32s-14.355 32-32 32-32-14.355-32-32 14.355-32 32-32z"/></svg>