<svg xmlns="http://www.w3.org/2000/svg" viewBox="0 0 512 512"><path d="M256 8C119 8 8 119 8 256s111 248 248 248 248-111 248-248S393 8 256 8zm0 448c-110.5 0-200-89.5-200-200S145.5 56 256 56s200 89.5 200 200-89.5 200-200 200zm-20.7-47.5c0 4.1 3.4 7.5 7.5 7.5h28.8c4.1 0 7.5-3.4 7.5-7.5v-29.4c18.5-3.5 34.2-12 45.8-24.8 12.1-13.4 18.8-31 18.8-49.5 0-20.3-8.1-36.4-24.7-49.2-13.7-10.6-31.4-17.3-47.1-23.3-25.5-9.7-41-16.6-41-29.2 0-14.5 16-19.6 29.6-19.6 24.6 0 47.1 18.5 47.4 18.7 1.7 1.4 4 2 6.2 1.6 2.2-.4 4.1-1.8 5.2-3.8l17.7-32.8c1.5-2.9 1.1-6.4-1.2-8.7-.8-.9-20.1-20.7-56.8-25.9v-29.1c0-4.1-3.4-7.5-7.5-7.5h-28.8c-4.1 0-7.5 3.4-7.5 7.5v30.3c-37.7 8.5-62.5 36-62.5 70.1 0 21.2 8.3 38.1 25.4 51.6 14.1 11.1 32.2 18.2 48.2 24.5 24.3 9.5 39.1 16.1 39.1 27.3 0 14.6-14.5 21.3-27.9 21.3-28 0-53.4-22.8-53.8-23.1-1.6-1.4-3.7-2.1-5.8-1.9-2.1.2-4 1.3-5.3 3L169.9 337c-2.1 2.9-2 6.8.4 9.5 1 1.1 23.7 25.9 65 32.9v29.1z"/></svg>