<svg xmlns="http://www.w3.org/2000/svg" viewBox="0 0 640 512"><path d="M640 324v24c0 6.627-5.373 12-12 12h-76v76c0 6.627-5.373 12-12 12h-24c-6.627 0-12-5.373-12-12v-76h-76c-6.627 0-12-5.373-12-12v-24c0-6.627 5.373-12 12-12h76v-76c0-6.627 5.373-12 12-12h24c6.627 0 12 5.373 12 12v76h76c6.627 0 12 5.373 12 12zm-240 77.043V408c0 13.255-10.745 24-24 24H72c-13.255 0-24-10.745-24-24v-20.308c0-35.346 28.654-64 64-64h22.094c54.151 36.936 125.662 36.936 179.812 0H336a63.681 63.681 0 0 1 32 8.583c0-9.588-1.458-28.297 14.007-46.753a110.775 110.775 0 0 0-23.573-7.592c16.122-25.109 25.258-54.772 25.258-86.238C383.692 103.488 312.188 32 224 32c-88.204 0-159.692 71.505-159.692 159.692 0 31.361 9.086 61.052 25.259 86.238-21.362 4.32-40.999 14.802-56.762 30.566C11.65 329.65 0 357.776 0 387.692V408c0 39.701 32.299 72 72 72h304c39.701 0 72-32.299 72-72-20.502 0-32.261 1.385-48-6.957zM224 80c61.686 0 111.692 50.006 111.692 111.692S285.686 303.385 224 303.385s-111.692-50.006-111.692-111.692S162.314 80 224 80z"/></svg>