<svg xmlns="http://www.w3.org/2000/svg" viewBox="0 0 640 512"><path d="M581.165 236.267C588.082 223.013 592 207.956 592 192c0-52.935-43.065-96-96-96-26.332 0-50.211 10.666-67.572 27.894C405.428 87.432 365.286 64 320 64c-45.19 0-85.377 23.352-108.428 59.894C194.212 106.666 170.332 96 144 96c-52.935 0-96 43.065-96 96 0 15.956 3.918 31.013 10.835 44.267C24.325 250.672 0 284.751 0 324.422V356c0 33.084 26.916 60 60 60h90.957c10.077 19.013 30.067 32 53.043 32h232c22.976 0 42.966-12.987 53.043-32H580c33.084 0 60-26.916 60-60v-31.578c0-39.671-24.325-73.75-58.835-88.155zM496 144c26.51 0 48 21.49 48 48s-21.49 48-48 48-48-21.49-48-48 21.49-48 48-48zm-176-32c44.183 0 80 35.817 80 80s-35.817 80-80 80-80-35.817-80-80 35.817-80 80-80zm-176 32c26.51 0 48 21.49 48 48s-21.49 48-48 48-48-21.49-48-48 21.49-48 48-48zM48 356v-31.578c0-23.775 17.559-47.499 51.275-47.499 20.031 10.592 42.284 13.297 62.821 9.359C150.695 302.899 144 322.985 144 344.615V368H60c-6.627 0-12-5.373-12-12zm400 32c0 6.628-5.373 12-12 12H204c-6.627 0-12-5.372-12-12v-43.385c0-27.302 19.76-49.973 45.755-54.533 47.356 39.846 116.964 39.988 164.489 0C428.24 294.642 448 317.314 448 344.615V388zm144-32c0 6.627-5.373 12-12 12h-84v-23.385c0-21.63-6.695-41.717-18.097-58.333 20.529 3.937 42.783 1.237 62.821-9.359 32.971 0 51.275 23.011 51.275 47.499V356z"/></svg>