<svg xmlns="http://www.w3.org/2000/svg" viewBox="0 0 640 512"><path d="M615.681 406.711l-16.971 16.971c-4.686 4.686-12.284 4.686-16.971 0L528 369.941l-53.74 53.74c-4.686 4.686-12.284 4.686-16.971 0l-16.971-16.971c-4.686-4.686-4.686-12.284 0-16.971l53.74-53.74-53.74-53.74c-4.686-4.686-4.686-12.284 0-16.971l16.971-16.971c4.686-4.686 12.284-4.686 16.971 0l53.74 53.74 53.74-53.74c4.686-4.686 12.284-4.686 16.971 0l16.971 16.971c4.686 4.686 4.686 12.284 0 16.971L561.941 336l53.74 53.74c4.687 4.686 4.687 12.284 0 16.971zm-221.32 16.738C389.959 428.676 383.369 432 376 432H72c-13.255 0-24-10.745-24-24v-20.308c0-35.346 28.654-64 64-64h22.094c54.151 36.936 125.662 36.936 179.812 0H336c28.504 0 52.645 18.639 60.927 44.391 5.072-8.735 8.357-11.19 29.249-32.083l-19.799-19.799c-7.365-7.365-12.563-16.313-15.312-26.071a110.663 110.663 0 0 0-32.632-12.199c16.122-25.109 25.258-54.772 25.258-86.238C383.692 103.488 312.188 32 224 32c-88.204 0-159.692 71.505-159.692 159.692 0 31.361 9.086 61.052 25.259 86.238-21.362 4.32-40.999 14.802-56.762 30.566C11.65 329.65 0 357.776 0 387.692V408c0 39.701 32.299 72 72 72h304c19.309 0 36.853-7.655 49.796-20.071-10.192-9.131-25.701-24.072-31.435-36.48zM224 80c61.686 0 111.692 50.006 111.692 111.692S285.686 303.385 224 303.385s-111.692-50.006-111.692-111.692S162.314 80 224 80z"/></svg>