<svg xmlns="http://www.w3.org/2000/svg" viewBox="0 0 448 512"><path d="M112 384c17.645 0 32 14.355 32 32s-14.355 32-32 32-32-14.355-32-32 14.355-32 32-32zm336 0v104c0 13.255-10.745 24-24 24H24c-13.255 0-24-10.745-24-24V384c0-53.019 42.981-96 96-96v66.025C68.427 361.148 48 386.233 48 416c0 36.303 30.383 65.644 67.057 63.928 32.777-1.533 59.368-28.148 60.874-60.926 1.428-31.071-19.436-57.616-47.931-64.977v-66.018C89.14 258.817 64 212.348 64 160 64 71.642 135.627 0 224 0c88.358 0 160 71.626 160 160 0 52.342-25.138 98.815-64 128.007v33.603c-36.471 7.433-64 39.756-64 78.39v49.441c0 11.44 8.075 21.29 19.293 23.534l21.802 4.361c6.499 1.3 12.821-2.915 14.12-9.414l1.569-7.845c1.3-6.499-2.915-12.821-9.414-14.12L288 442.883V400c0-26.776 22.039-48.502 48.929-47.991 26.278.499 47.071 22.513 47.071 48.797v42.078l-15.371 3.074c-6.499 1.3-10.713 7.622-9.414 14.12l1.569 7.845c1.3 6.499 7.622 10.714 14.12 9.414l21.802-4.361C407.925 470.732 416 460.882 416 449.441V400c0-38.634-27.529-70.957-64-78.39V288c53.019 0 96 42.981 96 96zM112 160c0 61.856 50.144 112 112 112s112-50.144 112-112S285.856 48 224 48 112 98.144 112 160z"/></svg>