<svg xmlns="http://www.w3.org/2000/svg" xmlns:xlink="http://www.w3.org/1999/xlink" viewBox="0 0 1280 283.5"><defs><style>.cls-1{fill:#3eb5f7;}.cls-2,.cls-5{opacity:0.36;}.cls-2{fill:url(#linear-gradient);}.cls-3,.cls-4,.cls-6{opacity:0.15;}.cls-3{fill:url(#linear-gradient-2);}.cls-4{fill:url(#linear-gradient-3);}.cls-5{fill:url(#linear-gradient-4);}.cls-6{fill:url(#linear-gradient-5);}</style><linearGradient id="linear-gradient" x1="699.2" y1="610.21" x2="699.2" y2="32.82" gradientUnits="userSpaceOnUse"><stop offset="0" stop-color="#094c5b"/><stop offset="0.21" stop-color="#055b72"/><stop offset="0.44" stop-color="#026583"/><stop offset="0.69" stop-color="#016c8d"/><stop offset="1" stop-color="#006e90"/></linearGradient><linearGradient id="linear-gradient-2" x1="266.02" y1="517.6" x2="266.02" y2="0" xlink:href="#linear-gradient"/><linearGradient id="linear-gradient-3" x1="1073.18" y1="517.6" x2="1073.18" y2="0" xlink:href="#linear-gradient"/><linearGradient id="linear-gradient-4" x1="640" y1="610.21" x2="640" y2="32.82" xlink:href="#linear-gradient"/><linearGradient id="linear-gradient-5" x1="640" y1="517.6" x2="640" y2="0" xlink:href="#linear-gradient"/></defs><title>waves</title><g id="Layer_2" data-name="Layer 2"><g id="Layer_1-2" data-name="Layer 1"><path class="cls-1" d="M640.58,81.79c25.23,6.71,48.56,15.36,74.92,21,22.68,4.85,48.9,6,72.68.8,33-7.23,56.72-20.75,78.18-35.37-43-23.19-101.57-38.13-165.87-35A470.7,470.7,0,0,0,532,73.9c7.83-1.21,15.87-2.09,24.17-2.56C585.92,69.68,614.7,74.91,640.58,81.79Z"/><path class="cls-2" d="M640.58,81.79c25.23,6.71,48.56,15.36,74.92,21,22.68,4.85,48.9,6,72.68.8,33-7.23,56.72-20.75,78.18-35.37-43-23.19-101.57-38.13-165.87-35A470.7,470.7,0,0,0,532,73.9c7.83-1.21,15.87-2.09,24.17-2.56C585.92,69.68,614.7,74.91,640.58,81.79Z"/><path class="cls-1" d="M.68,208.49a706.63,706.63,0,0,0,81.87,6.74c57.79,1.59,109.9-2.24,164.56-12.5,13.07-2.46,23.13-4.68,37-8.25,12.65-3.26,24.95-6.88,36.79-10.84,13-4.35,20.88-7.37,32.14-12.25,13.09-5.68,25.46-11.76,37.34-18.08,46.31-24.61,85-52.76,134.26-76q3.66-1.72,7.43-3.42A326.86,326.86,0,0,0,480.3,86.68c-22.46,7.32-43.63,15.8-67.71,21.79a123.5,123.5,0,0,1-14.8,3q-4,.65-8.13,1.14c-1.52.18-3,.34-4.58.48-.21,0-4,.25-3.54.25a135.62,135.62,0,0,1-35.47-2.77C317.83,104.17,298,91.3,280.53,78.93c-20.07-14.18-39.7-28.52-68.07-38.85C157.88,20.2,83.09,22.24,23.63,35c-8.14,1.74-16,3.69-23.63,5.83V208.4Z"/><path class="cls-3" d="M.68,208.49a706.63,706.63,0,0,0,81.87,6.74c57.79,1.59,109.9-2.24,164.56-12.5,13.07-2.46,23.13-4.68,37-8.25,12.65-3.26,24.95-6.88,36.79-10.84,13-4.35,20.88-7.37,32.14-12.25,13.09-5.68,25.46-11.76,37.34-18.08,46.31-24.61,85-52.76,134.26-76q3.66-1.72,7.43-3.42A326.86,326.86,0,0,0,480.3,86.68c-22.46,7.32-43.63,15.8-67.71,21.79a123.5,123.5,0,0,1-14.8,3q-4,.65-8.13,1.14c-1.52.18-3,.34-4.58.48-.21,0-4,.25-3.54.25a135.62,135.62,0,0,1-35.47-2.77C317.83,104.17,298,91.3,280.53,78.93c-20.07-14.18-39.7-28.52-68.07-38.85C157.88,20.2,83.09,22.24,23.63,35c-8.14,1.74-16,3.69-23.63,5.83V208.4Z"/><path class="cls-1" d="M1083.69,2.77c-34.26-4.67-69.6-3.51-101.8,4.06C953.66,13.47,930.62,25,911.32,37.08c-15.47,9.68-29.62,20.68-45,31.13,1.06.58,2.12,1.15,3.16,1.73,43.24,24.18,69.79,53.76,103.55,81.15,16.9,13.71,34.38,25.8,58.51,36.59,20.88,9.32,47.74,16.63,74.33,20.89,57.26,9.17,116.81,7.58,174.09-1.8V88.29c-12.21-6.59-23.59-13.46-34.29-20C1201.28,41,1154.3,12.38,1083.69,2.77Z"/><path class="cls-4" d="M1083.69,2.77c-34.26-4.67-69.6-3.51-101.8,4.06C953.66,13.47,930.62,25,911.32,37.08c-15.47,9.68-29.62,20.68-45,31.13,1.06.58,2.12,1.15,3.16,1.73,43.24,24.18,69.79,53.76,103.55,81.15,16.9,13.71,34.38,25.8,58.51,36.59,20.88,9.32,47.74,16.63,74.33,20.89,57.26,9.17,116.81,7.58,174.09-1.8V88.29c-12.21-6.59-23.59-13.46-34.29-20C1201.28,41,1154.3,12.38,1083.69,2.77Z"/><path class="cls-1" d="M1105.91,208.57c-26.59-4.26-53.45-11.57-74.33-20.89-24.13-10.79-41.61-22.88-58.51-36.59-33.76-27.39-60.31-57-103.55-81.15-1-.58-2.1-1.15-3.16-1.73-21.46,14.62-45.23,28.14-78.18,35.37-23.78,5.22-50,4-72.68-.8-26.36-5.63-49.69-14.28-74.92-21-25.88-6.88-54.66-12.11-84.38-10.45-8.3.47-16.34,1.35-24.17,2.56q-3.76,1.69-7.43,3.42c-49.27,23.23-88,51.38-134.26,76-11.88,6.32-24.25,12.4-37.34,18.08-11.26,4.88-19.14,7.9-32.14,12.25-11.84,4-24.14,7.58-36.79,10.84-13.83,3.57-23.89,5.79-37,8.25C192.45,213,140.34,216.82,82.55,215.23A706.63,706.63,0,0,1,.68,208.49L0,208.4v75.1H1280V206.77C1222.72,216.15,1163.17,217.74,1105.91,208.57Z"/><path class="cls-5" d="M1105.91,208.57c-26.59-4.26-53.45-11.57-74.33-20.89-24.13-10.79-41.61-22.88-58.51-36.59-33.76-27.39-60.31-57-103.55-81.15-1-.58-2.1-1.15-3.16-1.73-21.46,14.62-45.23,28.14-78.18,35.37-23.78,5.22-50,4-72.68-.8-26.36-5.63-49.69-14.28-74.92-21-25.88-6.88-54.66-12.11-84.38-10.45-8.3.47-16.34,1.35-24.17,2.56q-3.76,1.69-7.43,3.42c-49.27,23.23-88,51.38-134.26,76-11.88,6.32-24.25,12.4-37.34,18.08-11.26,4.88-19.14,7.9-32.14,12.25-11.84,4-24.14,7.58-36.79,10.84-13.83,3.57-23.89,5.79-37,8.25C192.45,213,140.34,216.82,82.55,215.23A706.63,706.63,0,0,1,.68,208.49L0,208.4v75.1H1280V206.77C1222.72,216.15,1163.17,217.74,1105.91,208.57Z"/><path class="cls-6" d="M1105.91,208.57c-26.59-4.26-53.45-11.57-74.33-20.89-24.13-10.79-41.61-22.88-58.51-36.59-33.76-27.39-60.31-57-103.55-81.15-1-.58-2.1-1.15-3.16-1.73-21.46,14.62-45.23,28.14-78.18,35.37-23.78,5.22-50,4-72.68-.8-26.36-5.63-49.69-14.28-74.92-21-25.88-6.88-54.66-12.11-84.38-10.45-8.3.47-16.34,1.35-24.17,2.56q-3.76,1.69-7.43,3.42c-49.27,23.23-88,51.38-134.26,76-11.88,6.32-24.25,12.4-37.34,18.08-11.26,4.88-19.14,7.9-32.14,12.25-11.84,4-24.14,7.58-36.79,10.84-13.83,3.57-23.89,5.79-37,8.25C192.45,213,140.34,216.82,82.55,215.23A706.63,706.63,0,0,1,.68,208.49L0,208.4v75.1H1280V206.77C1222.72,216.15,1163.17,217.74,1105.91,208.57Z"/></g></g></svg>