<svg xmlns="http://www.w3.org/2000/svg" viewBox="0 0 1280 1109"><defs><style>.cls-1{fill:#3eb5f7;}.cls-2{fill:none;}.cls-3{fill:#4277aa;opacity:0.39;}.cls-4{opacity:0.65;}.cls-5{fill:#57c9e9;}</style></defs><title>waves</title><g id="Layer_2" data-name="Layer 2"><g id="Layer_1-2" data-name="Layer 1"><rect class="cls-1" width="1279" height="1024"/><path class="cls-2" d="M6.26,823.14c8.79-4.46,17.44-4.38,27.13-3.08,3,.41,6,.79,9.06,1.17l-.14,0h.23l1.29.16a8.41,8.41,0,0,0,1.17.08c.44.07.87.15,1.24.19q9.16,1,18.36,1.75a814.74,814.74,0,0,0,154-1.81,34.39,34.39,0,0,1,5.06-.58l7.8-1q8.48-1.14,16.92-2.45,19.49-3,38.75-7c24.82-5.1,49.33-11.35,73.37-18.72,11.86-3.64,23.56-7.61,35.2-11.73l.6-.23,3.62-1.37q4.23-1.6,8.43-3.27,8.42-3.3,16.71-6.82C448.92,758.41,471.92,747,494.49,735c46.6-24.81,91.77-52,141.42-72.24,51.46-20.94,107.91-36.13,165.4-33.13,53.4,2.79,103.21,19.26,150.07,40.83,43.38,20,84.06,44,127.13,64.44Q1096,743.2,1114,750.68q9,3.74,18.09,7.27,4.25,1.65,8.51,3.25l2.61,1h0c23.86,8.32,47.93,16,72.58,22.44q31.74,8.28,64.23,14.18V586H0V827.27A34.19,34.19,0,0,1,6.26,823.14Z"/><path class="cls-3" d="M1143.19,762.17h0l-2.61-1q-4.26-1.61-8.51-3.25-9.1-3.54-18.09-7.27-18-7.48-35.47-15.78c-43.07-20.45-83.75-44.47-127.13-64.44-46.86-21.57-96.67-38-150.07-40.83-57.49-3-113.94,12.19-165.4,33.13C586.26,683,541.09,710.19,494.49,735c-22.57,12-45.57,23.41-69.39,33.46q-8.3,3.51-16.71,6.82-4.2,1.66-8.43,3.27l-3.62,1.37-.6.23c-11.64,4.12-23.34,8.09-35.2,11.73-24,7.37-48.55,13.62-73.37,18.72q-19.26,4-38.75,7Q240,818.9,231.5,820l-7.8,1a34.39,34.39,0,0,0-5.06.58,814.74,814.74,0,0,1-154,1.81q-9.19-.76-18.36-1.75c-.37,0-.8-.12-1.24-.19a8.41,8.41,0,0,1-1.17-.08l-1.29-.16h-.23l.14,0c-3-.38-6.05-.76-9.06-1.17-9.69-1.3-18.34-1.38-27.13,3.08A34.19,34.19,0,0,0,0,827.27V1024H.8c16.76,47.34,296.53,85,639.2,85s622.44-37.66,639.2-85h.8V798.79q-32.45-5.89-64.23-14.18C1191.12,778.18,1167.05,770.49,1143.19,762.17Z"/><g class="cls-4"><path class="cls-2" d="M.07,620.54c96.33-41.66,206.9-21.34,291.11,54,10.29,9.2,20.31,18.91,30.66,28,5.13,4.5,10.34,8.84,15.69,12.85q3.74,2.8,7.57,5.38c1.59,1.06,3.2,2,4.8,3.08a4.85,4.85,0,0,1,1.43,1.26c2.12,1,4.69,1.65,6.14,2.25a81.38,81.38,0,0,0,8.22,2.93c1.24.37,2.5.63,3.75,1,2.14.24,4.27.49,6.43.58a80.42,80.42,0,0,0,8.92-.14c1-.07,2.6-.55,4.15-.87-.54.35-.32.71,1.47.26l1.88-.46a2.35,2.35,0,0,1,.37.14l-.35-.15c.67-.16,1.34-.32,2-.5,2.6-.69,5.19-1.48,7.77-2.35,11.17-3.8,22-9.1,32.71-14.91,1.74-1,3.49-2,5.26-2.93l6.62-3.84c5.12-3,10.24-6,15.38-8.91,25.33-14.44,50-26.51,77.52-30.77,50-7.74,98.33,19.66,145.5,37.45A252,252,0,0,0,719,714.37c.42.09,1.07.35,1.79.6a5.89,5.89,0,0,1,1.44.06c2.75.35,5.49.73,8.25,1a114.64,114.64,0,0,0,17.58.16c1-.08,3.6.09,5.82-.06-.22-.13.13-.41,1.64-.81s2.89-.7,4.34-1.11a116.18,116.18,0,0,0,16.91-6.27c3-1.35,6.74-4.51,9.86-5.1,1-.65,2.1-1.29,3.14-1.95,5.33-3.4,10.56-7.07,15.73-10.89,21.33-15.76,41.54-34.18,63.3-48.91A329.42,329.42,0,0,1,934,606.47a299.11,299.11,0,0,1,134.23-19.35c76.15,6.73,150.44,41,211.8,101.27V586H0v34.57Z"/><path class="cls-5" d="M934,606.47a329.42,329.42,0,0,0-65.17,34.58c-21.76,14.73-42,33.15-63.3,48.91-5.17,3.82-10.4,7.49-15.73,10.89-1,.66-2.09,1.3-3.14,1.95-3.12.59-6.9,3.75-9.86,5.1a116.18,116.18,0,0,1-16.91,6.27c-1.45.41-2.9.73-4.34,1.11s-1.86.68-1.64.81c-2.22.15-4.79,0-5.82.06a114.64,114.64,0,0,1-17.58-.16c-2.76-.23-5.5-.61-8.25-1a5.89,5.89,0,0,0-1.44-.06c-.72-.25-1.37-.51-1.79-.6a252,252,0,0,1-33.93-10.52c-47.17-17.79-95.46-45.19-145.5-37.45-27.49,4.26-52.19,16.33-77.52,30.77-5.14,2.93-10.26,5.93-15.38,8.91l-6.62,3.84c-1.77.9-3.52,2-5.26,2.93-10.68,5.81-21.54,11.11-32.71,14.91-2.58.87-5.17,1.66-7.77,2.35-.66.18-1.33.34-2,.5l.35.15a2.35,2.35,0,0,0-.37-.14l-1.88.46c-1.79.45-2,.09-1.47-.26-1.55.32-3.15.8-4.15.87a80.42,80.42,0,0,1-8.92.14c-2.16-.09-4.29-.34-6.43-.58-1.25-.36-2.51-.62-3.75-1a81.38,81.38,0,0,1-8.22-2.93c-1.45-.6-4-1.27-6.14-2.25a4.85,4.85,0,0,0-1.43-1.26c-1.6-1-3.21-2-4.8-3.08q-3.84-2.57-7.57-5.38c-5.35-4-10.56-8.35-15.69-12.85-10.35-9.06-20.37-18.77-30.66-28C207,599.2,96.4,578.88.07,620.54l-.07,0V1024H.8c16.76,47.34,296.53,85,639.2,85s622.44-37.66,639.2-85h.8V688.39c-61.36-60.32-135.65-94.54-211.8-101.27A299.11,299.11,0,0,0,934,606.47Z"/></g></g></g></svg>