<svg xmlns="http://www.w3.org/2000/svg" viewBox="0 0 512 512"><path d="M233.014 366.269l69.659 69.659C229.545 484.027 142.02 512 48 512c-11.252 0-20.892-7.796-23.386-18.603l-23.997-104c-2.612-11.317 3.256-22.881 13.931-27.456l111.997-47.999a24 24 0 0 1 28.029 6.862l49.596 60.616a363.398 363.398 0 0 0 28.844-15.151zm164.932-13.579C468.963 271.206 512 164.671 512 48c0-11.176-7.714-20.873-18.603-23.385l-104-23.997c-11.314-2.611-22.879 3.252-27.456 13.931l-48 111.997a24 24 0 0 0 6.862 28.029l60.617 49.596c-13.556 28.894-30.954 55.957-51.554 80.439L52.285 7.029c-9.372-9.372-24.568-9.373-33.941 0L7.03 18.343c-9.373 9.373-9.373 24.569 0 33.941L459.716 504.97c9.373 9.373 24.568 9.373 33.941 0l11.314-11.314c9.373-9.373 9.373-24.569 0-33.941L397.946 352.69z"/></svg>