<svg xmlns="http://www.w3.org/2000/svg" viewBox="0 0 384 512"><path d="M0 464V48C0 21.49 21.49 0 48 0h288c26.51 0 48 21.49 48 48v416c0 26.51-21.49 48-48 48H48c-26.51 0-48-21.49-48-48zm192-176c53.019 0 96-42.981 96-96s-42.981-96-96-96-96 42.981-96 96 42.981 96 96 96zm94.317 17.474l-22.954-7.173C242.437 312.413 217.802 320 192 320s-50.437-7.587-71.363-21.699l-22.954 7.173C77.644 311.736 64 330.295 64 351.289V400c0 26.51 21.49 48 48 48h160c26.51 0 48-21.49 48-48v-48.711c0-20.994-13.644-39.553-33.683-45.815z"/></svg>