<svg xmlns="http://www.w3.org/2000/svg" viewBox="0 0 512 512"><path d="M504 256c0 136.967-111.033 248-248 248S8 392.967 8 256 119.033 8 256 8s248 111.033 248 248zm-177.811 3.732c-16.045-12.42-36.231-20.246-55.752-27.813-33.873-13.131-54.441-22.511-54.441-42.007 0-8.317 3.706-15.58 10.719-21.004 7.811-6.041 19.356-9.368 32.51-9.368 30.935 0 56.027 21.997 56.262 22.206a8.995 8.995 0 0 0 7.489 2.178 8.996 8.996 0 0 0 6.378-4.489l17.276-30.936a9 9 0 0 0-1.388-10.645c-.929-.96-20.51-20.774-57.242-28.105V76c0-6.627-5.373-12-12-12h-40c-6.627 0-12 5.373-12 12v35.356c-16.854 4.814-31.48 13.097-42.878 24.408-15.026 14.911-23.301 34.426-23.301 54.951 0 54.796 48.128 74.002 86.799 89.434 32.484 12.963 52.208 22.092 52.208 39.529 0 9.61-3.894 17.784-11.262 23.637-7.423 5.897-17.919 9.145-29.555 9.145-36.629 0-65.68-27.637-66.047-27.99a8.999 8.999 0 0 0-13.433 1.008l-21.695 28.525a9 9 0 0 0 .465 11.459c1.109 1.236 25.001 27.325 68.698 36.841V436c0 6.627 5.373 12 12 12h40c6.627 0 12-5.373 12-12v-34.218c17.605-4.721 32.759-13.618 44.422-26.223 14.563-15.739 22.583-36.44 22.583-58.291.001-23.706-9.425-42.527-28.815-57.536z"/></svg>