<svg xmlns="http://www.w3.org/2000/svg" viewBox="0 0 576 512"><path d="M574.974 456.027C571.316 470.142 558.579 480 543.997 480c-50.403 0-89.979-17.891-120.173-36.08-52.13 14.137-111.916 12.816-165.659-7.041 30.755-1.501 60.734-6.803 88.917-15.594 27.598.54 55.154-3.378 81.424-12.21C459.19 429.076 495.998 448 543.997 448c-36-20-46.846-40.709-51.84-73.558C521.775 350.182 544 315.677 544 274.667c0-20.701-5.766-40.458-16.102-58.393.63-20.166-2.137-40.218-8.195-59.885C553.772 187.01 576 228.3 576 274.667c0 40.744-17.163 79.583-48.727 111.119 4.471 14.284 12.703 23.374 32.264 34.241 12.747 7.081 19.095 21.884 15.437 36zM240.002 64C126.033 64 32.003 130.245 32.003 210.667c0 41.011 24.074 75.515 56.16 99.775C82.753 343.291 71.003 364 32.003 384c52 0 91.875-18.924 125.116-38.925 26.268 8.152 54.145 12.258 82.883 12.258 114.09 0 207.998-66.251 207.998-146.666C448 130.849 354.931 64 240.002 64m0-32C371.039 32 480 110.723 480 210.667c0 100.271-109.385 178.667-239.998 178.667-27.008 0-53.354-3.281-78.521-9.767C129.047 397.794 86.365 416 32.003 416c-14.78 0-27.637-10.122-31.106-24.489-3.469-14.367 3.352-29.241 16.504-35.985 24.597-12.614 31.223-22.729 35.047-33.299C18.473 290.687.004 251.705.004 210.667.003 110.39 109.504 32 240.002 32z"/></svg>