<svg xmlns="http://www.w3.org/2000/svg" viewBox="0 0 512 512"><path d="M368 192c0 26.51-21.49 48-48 48s-48-21.49-48-48a47.789 47.789 0 0 1 5.647-22.603v.015c0 10.916 8.849 19.765 19.765 19.765s19.765-8.849 19.765-19.765-8.849-19.765-19.765-19.765h-.015A47.789 47.789 0 0 1 320 144c26.51 0 48 21.49 48 48zm-176-48a47.789 47.789 0 0 0-22.603 5.647h.015c10.916 0 19.765 8.849 19.765 19.765s-8.849 19.765-19.765 19.765-19.765-8.849-19.765-19.765v-.015A47.789 47.789 0 0 0 144 192c0 26.51 21.49 48 48 48s48-21.49 48-48-21.49-48-48-48zm176.551 212.661c-59.124-91.452-165.846-91.599-225.064 0-11.502 17.79 15.381 35.148 26.873 17.373 46.626-72.119 124.864-71.854 171.318 0 11.327 17.525 38.547.684 26.873-17.373zM256 40C136.055 40 40 137.336 40 256c0 119.945 97.336 216 216 216 119.945 0 216-97.336 216-216 0-119.945-97.336-216-216-216m0-32c136.967 0 248 111.033 248 248S392.967 504 256 504 8 392.967 8 256 119.033 8 256 8z"/></svg>