<svg xmlns="http://www.w3.org/2000/svg" viewBox="0 0 512 512"><path d="M353.394 227.966L256 157.382l-97.421 70.604 37.357 114.111H316.37l37.024-114.131zm-60.286 82.131h-73.977l-22.881-69.893L256 196.901l59.776 43.322-22.668 69.874zM256 8C119.033 8 8 119.033 8 256s111.033 248 248 248 248-111.033 248-248S392.967 8 256 8zm190.552 146.18a214.443 214.443 0 0 1 23.409 72.108l-16.381 12.581-42.317-33.315 14.662-51.862 20.627.488zm-152.7-110.87l6.91 19.488L256 92.749l-44.793-29.972 6.837-19.458c24.465-4.326 50.276-4.522 75.808-.009zM86.086 153.726l14.652 51.827-42.346 33.338-16.359-12.489a214.801 214.801 0 0 1 23.404-72.126l20.649-.55zm14.285 252.061l5.855-19.792 53.818 2.079 18.62 50.576-16.949 11.709a216.888 216.888 0 0 1-61.344-44.572zm97.718 58.336l19.177-13.249-34.591-93.951-100.078-3.866-6.616 22.37c-21.111-31.74-34.056-69.429-35.77-110.156l18.483 14.111 78.664-61.93-27.248-96.376-23.265.619c24.205-30.473 56.479-54.295 93.693-68.161l-7.745 22.043L256 131.251l83.238-55.695-7.803-22.005c37.144 13.843 69.472 37.611 93.73 68.113l-23.285-.553-27.238 96.341 78.692 61.952 18.456-14.174c-1.708 40.596-14.621 78.325-35.754 110.146l-6.67-22.317-100.041 3.864-34.604 93.986 19.253 13.22c-36.912 10.251-77.21 10.744-115.885-.006zm152.33-13.786l-17.071-11.723 18.607-50.541 53.855-2.081 5.894 19.721c-17.541 18.247-38.261 33.42-61.285 44.624z"/></svg>