<svg xmlns="http://www.w3.org/2000/svg" viewBox="0 0 640 512"><path d="M616 96h-80c-13.255 0-24 10.745-24 24v8h-13.98L467.4 96.62C450.18 75.88 425.38 64 399.24 64h-43.48c-17.26 0-33.83 5.67-47.6 15.98C292.9 69.69 274.62 64 255.92 64h-30.1c-23.97 0-46.58 8.95-63.81 25.23L127.91 118c-1.01-12.32-11.34-22-23.91-22H24c-13.25 0-24 10.75-24 24v240c0 13.25 10.75 24 24 24h80c12.6 0 22.94-9.72 23.92-22.07l57.83 53.09c10.25 10.3 24.37 18.83 40.9 24.71 15.22 5.41 31.42 8.27 46.84 8.27 14.38 0 28.26-3.57 39.98-10.08 22.078 1.578 45.43-8.115 60.24-26.93 19.507-4.254 36.546-15.967 47.5-31.85 20.077-2.708 36.576-13.139 46.619-27.14H512v8c0 13.255 10.745 24 24 24h80c13.255 0 24-10.745 24-24V120c0-13.255-10.745-24-24-24zM32 352V128h64v224H32zm405.66-13.96c-14.428 13.006-34.599 10.286-37.45 7.27 1.323 12.091-16.941 37.243-46 35.34-5.171 16.807-26.409 30.774-48.26 23.42-24.539 23.802-78.639 7.884-97.95-12.07-77.229-70.883-73.233-68.386-80-70.7V158.24c5.065-2.059 2.284-.376 55.41-45.2C194.66 102.13 209.91 96 225.82 96h30.1c10.56 0 20.83 2.7 29.82 7.7l-47 58.71c-19.44 24.27-19.67 59.72-.56 84.28 27.756 35.648 78.886 35.957 107.24 1.8l30.52-37.84 63.66 81.71c12.6 13.27 10.26 34.67-1.94 45.68zm-41.12-153.01c4.68-6.81 3.39-16.2-3.16-21.48-6.92-5.581-16.988-4.421-22.5 2.41l-50.15 62.16c-15.503 18.586-42.293 18.173-57.3-1.09-9.96-12.8-9.84-31.98.29-44.62l54.1-67.58C327.03 103.329 340.663 96 355.76 96h43.48c16.73 0 32.71 7.82 43.85 21.45l.45.54L484.53 160H512v160h-32.292c.11-1.182.195-2.368.242-3.56.65-16.76-4.99-32.58-15.9-44.76l-67.51-86.65zM608 352h-64V128h64v224zm-48-48c0-8.837 7.163-16 16-16s16 7.163 16 16-7.163 16-16 16-16-7.163-16-16zm-480 0c0 8.837-7.163 16-16 16s-16-7.163-16-16 7.163-16 16-16 16 7.163 16 16z"/></svg>