<svg xmlns="http://www.w3.org/2000/svg" viewBox="0 0 576 512"><path d="M403.7 24c-42.8 0-83.9 25.8-115.7 54.7C256.2 49.8 215.1 24 172.3 24 80.8 24 24 80.6 24 171.7c0 31.9 11.8 61.1 25.6 84.3 7.5 12.6 15.5 23.4 22.6 31.9 9.9 12 18 19.6 19.9 21.4l170.3 168.2c14.1 13.9 37.1 13.9 51.2 0l170.2-167.8.5-.5c4.4-4.2 11.5-11.6 19.4-21.3 7.2-8.8 15.2-19.6 22.6-32 14-23.5 25.7-52.7 25.7-84.3C552 80.6 495.2 24 403.7 24zM291.2 454.7c-1.8 1.8-4.5 1.8-6.3 0L116 288h66.9c5.1 0 9.7-3.2 11.4-8.1l30-95.2 69 207.3c3.6 10.3 17.9 10.8 22.3.8L370.7 249l10.5 32.8c2.1 3.8 6.1 6.2 10.5 6.2h68.6L291.2 454.7zM403.4 256l-24.3-57.8c-4.8-8.7-17.5-8.1-21.5 1l-51 134.5L235.3 120c-3.8-10.7-19-10.7-22.7.1l-44 135.9H87.8C69.9 231.1 56 200.6 56 171.7 56 98.2 98.4 56 172.3 56c43.1 0 81.7 33.7 111.4 63.2 2.4 2.3 6.2 2.3 8.5-.1 19-19.2 63.5-63.2 111.5-63.2C477.6 56 520 98.2 520 171.7c0 29.3-13.5 58.9-32 84.3h-84.6z"/></svg>