<svg xmlns="http://www.w3.org/2000/svg" viewBox="0 0 512 512"><path d="M464 64H48C21.49 64 0 85.49 0 112v288c0 26.51 21.49 48 48 48h416c26.51 0 48-21.49 48-48V112c0-26.51-21.49-48-48-48zm16 336c0 8.837-7.163 16-16 16H48c-8.837 0-16-7.163-16-16V128h448v272zm-44-48H300c-6.627 0-12-5.373-12-12v-8c0-6.627 5.373-12 12-12h136c6.627 0 12 5.373 12 12v8c0 6.627-5.373 12-12 12zm0-64H300c-6.627 0-12-5.373-12-12v-8c0-6.627 5.373-12 12-12h136c6.627 0 12 5.373 12 12v8c0 6.627-5.373 12-12 12zm0-64H300c-6.627 0-12-5.373-12-12v-8c0-6.627 5.373-12 12-12h136c6.627 0 12 5.373 12 12v8c0 6.627-5.373 12-12 12zm-208.12 58.29C235.56 270.02 240 255.52 240 240c0-44.11-35.89-80-80-80s-80 35.89-80 80c0 15.52 4.44 30.02 12.12 42.29C75.2 288.81 64 304.99 64 323.32V346c0 20.95 17.05 38 38 38h116c20.95 0 38-17.05 38-38v-22.68c0-18.33-11.2-34.51-28.12-41.03zM160 192c26.51 0 48 21.49 48 48 0 26.434-21.43 48-48 48-26.545 0-48-21.538-48-48 0-26.51 21.49-48 48-48zm64 154c0 3.31-2.69 6-6 6H102c-3.31 0-6-2.69-6-6v-22.68c0-5.21 3.37-9.83 8.33-11.43l13.08-4.2C129.75 315.49 144.35 320 160 320s30.25-4.51 42.59-12.31l13.08 4.2a12.02 12.02 0 0 1 8.33 11.43V346z"/></svg>