<svg xmlns="http://www.w3.org/2000/svg" viewBox="0 0 512 512"><path d="M256 40c118.664 0 216 96.055 216 216 0 118.664-96.055 216-216 216-118.664 0-216-96.055-216-216 0-118.664 96.055-216 216-216m0-32C119.033 8 8 119.033 8 256s111.033 248 248 248 248-111.033 248-248S392.967 8 256 8zm80 312H176c-21.179 0-21.169 32 0 32h160c21.179 0 21.169-32 0-32zm-16-176a47.789 47.789 0 0 0-22.603 5.647h.015c10.916 0 19.765 8.849 19.765 19.765s-8.849 19.765-19.765 19.765-19.765-8.849-19.765-19.765v-.015A47.789 47.789 0 0 0 272 192c0 26.51 21.49 48 48 48s48-21.49 48-48-21.49-48-48-48zm-128 0a47.789 47.789 0 0 0-22.603 5.647h.015c10.916 0 19.765 8.849 19.765 19.765s-8.849 19.765-19.765 19.765-19.765-8.849-19.765-19.765v-.015A47.789 47.789 0 0 0 144 192c0 26.51 21.49 48 48 48s48-21.49 48-48-21.49-48-48-48z"/></svg>