<svg xmlns="http://www.w3.org/2000/svg" viewBox="0 0 384 512"><path d="M337.591 269.889L82.213 14.468C53.012-16.128 0 4.99 0 48.013v375.966c0 42.514 51.677 64.082 81.882 33.877l44.391-44.391 29.249 69.217.078.185.081.179c10.558 24.134 38.489 35.454 62.815 25.132l44.233-18.736.171-.073.171-.075c24.001-10.501 35.503-38.311 25.148-62.775l-31.474-74.534h47.189c42.639 0 64.368-52.327 33.657-82.096zm-33.6 50.096h-95.495l50.247 118.994c3.5 8.25-.5 17.499-8.5 20.999l-44.247 18.749c-8.246 3.499-17.497-.497-20.998-8.499l-47.747-112.994-77.996 77.996c-10.306 10.306-27.249 2.507-27.249-11.249V47.999c0-14.306 17.908-21.369 27.249-11.249l255.987 255.987c10.35 9.806 2.67 27.248-11.251 27.248z"/></svg>