<svg xmlns="http://www.w3.org/2000/svg" viewBox="0 0 512 512"><path d="M294.974 405.602l22.981 22.981C243.408 481.156 152.491 512 54.5 512c-14.637 0-27.159-9.961-30.45-24.224L.806 387.026c-3.404-14.751 4.225-29.786 18.14-35.75l108.494-46.499c12.722-5.45 27.731-1.778 36.496 8.935l44.063 53.854a347.815 347.815 0 0 0 31.427-17.513l22.734 22.734c-18.935 12.143-39.814 23.457-63.103 34.383l-59.53-72.757-107.402 46.03L55.096 480c89.018-.122 171.621-27.567 239.878-74.398zm213.511 80.256c4.686 4.686 4.686 12.284 0 16.97l-5.656 5.656c-4.686 4.686-12.284 4.686-16.97 0L3.515 26.142c-4.686-4.686-4.686-12.284 0-16.97l5.656-5.656c4.686-4.686 12.284-4.686 16.971 0l285.892 285.892c22.135-24.253 40.903-51.63 55.531-81.408l-53.854-44.063c-10.713-8.765-14.387-23.772-8.935-36.495l46.5-108.494C357.239 5.034 372.28-2.597 387.025.808l100.751 23.244C502.039 27.341 512 39.862 512 54.5c0 120.768-46.69 230.367-122.87 312.004l119.355 119.354zM334.743 312.116l31.746 31.746C436.803 268.085 479.848 166.641 480 55.096l-99.557-22.972-46.031 107.402 72.758 59.53c-21.482 45.79-44.466 82.326-72.427 113.06z"/></svg>