<svg xmlns="http://www.w3.org/2000/svg" viewBox="0 0 512 512"><path d="M487.776 24.051L387.025.806c-14.745-3.405-29.786 4.226-35.749 18.14l-46.5 108.494c-5.452 12.723-1.778 27.73 8.935 36.495l53.854 44.063c-34.011 69.234-90.333 125.557-159.566 159.566l-44.063-53.854c-8.765-10.713-23.774-14.385-36.496-8.935L18.946 351.276C5.031 357.24-2.598 372.275.806 387.026l23.244 100.75C27.342 502.039 39.864 512 54.5 512 306.659 512 512 307.793 512 54.5c0-14.638-9.961-27.159-24.224-30.449zM55.096 480l-22.972-99.557 107.402-46.03 59.53 72.757c103.641-48.624 159.675-104.867 208.113-208.113l-72.758-59.53 46.031-107.402L480 55.096C479.68 289.713 289.638 479.68 55.096 480z"/></svg>