<svg xmlns="http://www.w3.org/2000/svg" viewBox="0 0 576 512"><path d="M208 32H48C21.533 32 0 53.533 0 80v160c0 26.467 21.533 48 48 48h50.386c-9.567 31.726-34.591 49.541-66.159 60.461C12.951 355.13 0 373.346 0 393.792v38.199c0 30.932 29.095 54.082 59.551 46.591C190.792 446.3 256 348.819 256 216V80c0-26.467-21.533-48-48-48zm16 184c0 119.516-56.608 203.112-172.092 231.517C41.788 450.007 32 442.418 32 432v-38.208c0-6.788 4.274-12.87 10.688-15.089 57.863-20.016 91.691-58.979 92.147-122.703H48c-8.836 0-16-7.163-16-16V80c0-8.837 7.164-16 16-16h160c8.836 0 16 7.163 16 16v136zM496 32H336c-26.467 0-48 21.533-48 48v160c0 26.467 21.533 48 48 48h50.386c-9.567 31.726-34.591 49.541-66.159 60.461C300.951 355.13 288 373.346 288 393.792v38.199c0 30.932 29.095 54.082 59.551 46.591C478.792 446.3 544 348.819 544 216V80c0-26.467-21.533-48-48-48zm16 184c0 119.516-56.608 203.112-172.092 231.517C329.788 450.007 320 442.418 320 432v-38.208c0-6.788 4.274-12.87 10.688-15.089 57.863-20.016 91.691-58.979 92.147-122.703H336c-8.836 0-16-7.163-16-16V80c0-8.837 7.164-16 16-16h160c8.836 0 16 7.163 16 16v136z"/></svg>