<svg xmlns="http://www.w3.org/2000/svg" viewBox="0 0 576 512"><path d="M336 480h160c26.467 0 48-21.533 48-48V272c0-26.467-21.533-48-48-48h-50.386c9.567-31.726 34.591-49.541 66.159-60.461C531.049 156.87 544 138.654 544 118.208V80.01c0-30.932-29.095-54.082-59.551-46.591C353.208 65.7 288 163.181 288 296v136c0 26.467 21.533 48 48 48zm-16-184c0-119.516 56.608-203.112 172.092-231.517C502.212 61.993 512 69.582 512 80v38.208c0 6.788-4.274 12.87-10.688 15.089-57.863 20.016-91.691 58.979-92.147 122.703H496c8.836 0 16 7.163 16 16v160c0 8.837-7.164 16-16 16H336c-8.836 0-16-7.163-16-16V296zM48 480h160c26.467 0 48-21.533 48-48V272c0-26.467-21.533-48-48-48h-50.386c9.567-31.726 34.591-49.541 66.159-60.461C243.049 156.87 256 138.654 256 118.208V80.01c0-30.932-29.095-54.082-59.551-46.591C65.208 65.7 0 163.181 0 296v136c0 26.467 21.533 48 48 48zM32 296C32 176.484 88.608 92.888 204.092 64.483 214.212 61.993 224 69.582 224 80v38.208c0 6.788-4.274 12.87-10.688 15.089-57.863 20.016-91.691 58.979-92.147 122.703H208c8.836 0 16 7.163 16 16v160c0 8.837-7.164 16-16 16H48c-8.836 0-16-7.163-16-16V296z"/></svg>