<svg xmlns="http://www.w3.org/2000/svg" viewBox="0 0 512 512"><path d="M130.563 312.687c-11.491-17.773 15.372-35.165 26.873-17.373 53.453 82.678 143.744 82.63 197.164 0 11.523-17.82 38.352-.382 26.873 17.373-66.111 102.261-184.893 102.113-250.91 0zM320 144a47.789 47.789 0 0 0-22.603 5.647h.015c10.916 0 19.765 8.849 19.765 19.765s-8.849 19.765-19.765 19.765-19.765-8.849-19.765-19.765v-.015A47.789 47.789 0 0 0 272 192c0 26.51 21.49 48 48 48s48-21.49 48-48-21.49-48-48-48zm-128 0a47.789 47.789 0 0 0-22.603 5.647h.015c10.916 0 19.765 8.849 19.765 19.765s-8.849 19.765-19.765 19.765-19.765-8.849-19.765-19.765v-.015A47.789 47.789 0 0 0 144 192c0 26.51 21.49 48 48 48s48-21.49 48-48-21.49-48-48-48zm64-104C136.055 40 40 137.336 40 256c0 119.945 97.336 216 216 216 119.945 0 216-97.336 216-216 0-119.945-97.336-216-216-216m0-32c136.967 0 248 111.033 248 248S392.967 504 256 504 8 392.967 8 256 119.033 8 256 8z"/></svg>