<svg xmlns="http://www.w3.org/2000/svg" viewBox="0 0 512 512"><path d="M430.069 96.493c-43.622 1.028-78.68 37.506-78.061 81.135.542 38.187 27.841 69.9 63.992 77.238V360.47C416 426.379 358.579 480 288 480c-70.58 0-128-53.621-128-119.529v-8.894c71.899-7.985 128-69.112 128-143.106V25.85a12.002 12.002 0 0 0-9.09-11.642L223.522.361c-6.43-1.607-12.945 2.302-14.552 8.731l-1.94 7.761c-1.607 6.43 2.302 12.945 8.731 14.552L256 41.465v165.773c0 61.803-49.543 112.875-111.345 113.23C82.599 320.825 32 270.446 32 208.471V41.465l40.239-10.059c6.43-1.607 10.339-8.122 8.731-14.552l-1.94-7.761C77.423 2.663 70.907-1.246 64.478.362L9.09 14.208A12.002 12.002 0 0 0 0 25.85v182.621c0 73.994 56.101 135.121 128 143.106v8.894C128 444.024 199.776 512 288 512c88.225 0 160-67.976 160-151.529V254.867c36.515-7.413 64-39.694 64-78.397 0-44.824-36.865-81.038-81.931-79.977zM432 224.471c-26.467 0-48-21.533-48-48s21.533-48 48-48 48 21.533 48 48-21.533 48-48 48zm23.529-48C455.529 189.466 444.995 200 432 200s-23.529-10.534-23.529-23.529 10.534-23.529 23.529-23.529 23.529 10.534 23.529 23.529z"/></svg>