<svg xmlns="http://www.w3.org/2000/svg" viewBox="0 0 448 512"><path d="M400 32H48C21.5 32 0 53.5 0 80v352c0 26.5 21.5 48 48 48h352c26.5 0 48-21.5 48-48V80c0-26.5-21.5-48-48-48zm16 400c0 8.8-7.2 16-16 16H48c-8.8 0-16-7.2-16-16V80c0-8.8 7.2-16 16-16h352c8.8 0 16 7.2 16 16v352zM280.7 262.5c-13-10.2-29.5-16.8-45.5-23.2-30.3-12.1-48.7-20.8-48.7-40.6 0-8 3.7-15.4 10.5-20.9 7.8-6.2 18.7-9.5 31.6-9.5 26.5 0 46 17.6 46.2 17.8 1.6 1.5 3.9 2.2 6.1 1.9 2.2-.3 4.2-1.6 5.3-3.6l11-18.4c1.7-2.9 1.3-6.6-1-9.1-.8-.9-19.5-19.9-53.5-24.1v-29.3c0-4.1-3.3-7.5-7.4-7.5h-18.6c-4.1 0-7.4 3.4-7.4 7.5V134c-16.8 3.2-31.3 10.4-42.2 21-12.3 11.9-19 27.7-19 44.4 0 20.1 7.9 36.1 24 49 13.4 10.7 30.4 17.5 46.8 24.2 29.3 11.8 47 20.3 47 38.1 0 22.9-20.5 33.4-39.5 33.4-32.5 0-55.6-23.2-55.9-23.6-1.5-1.5-3.6-2.3-5.7-2.2-2.1.1-4.1 1.1-5.5 2.8l-13.6 17.1c-2.3 2.8-2.2 6.9.2 9.7 1 1.1 23 25.7 63.4 31.3v29.5c0 4.1 3.3 7.5 7.4 7.5h18.6c4.1 0 7.4-3.4 7.4-7.5v-29.6c17.3-2.9 32-10.5 42.9-22.1 11.8-12.5 18.3-29.3 18.3-47.2.1-19.6-7.5-35-23.2-47.3z"/></svg>