<svg xmlns="http://www.w3.org/2000/svg" viewBox="0 0 448 512"><path d="M331.328 240C355.031 213.566 368 179.781 368 144 368 64.417 303.596 0 224 0 144.417 0 80 64.404 80 144c0 35.781 12.969 69.566 36.672 96C44.98 240 0 293.7 0 352v112c0 26.51 21.49 48 48 48h352c26.51 0 48-21.49 48-48V352c0-57.439-43.971-112-116.672-112zM224 32c61.856 0 112 50.144 112 112s-50.144 112-112 112-112-50.144-112-112S162.144 32 224 32zm-96 320c17.645 0 32 14.355 32 32s-14.355 32-32 32-32-14.355-32-32 14.355-32 32-32zm288 112c0 8.837-7.163 16-16 16H48c-8.837 0-16-7.163-16-16V352c0-44.183 35.817-80 80-80v50.025c-28.495 7.361-49.358 33.905-47.931 64.976 1.505 32.778 28.096 59.393 60.873 60.927C161.616 449.645 192 420.304 192 384c0-29.767-20.427-54.852-48-61.975V272h13.898c39.971 20.699 88.781 21.607 130.102 1.07V296c-36.471 7.433-64 39.756-64 78.39v43.052c0 11.44 8.075 21.29 19.293 23.534l21.802 4.36c6.499 1.3 12.821-2.915 14.12-9.414l1.569-7.845c1.3-6.499-2.915-12.82-9.414-14.12L256 410.883v-35.687c0-26.283 20.793-48.297 47.071-48.797 26.89-.511 48.929 21.215 48.929 47.991v36.493l-15.371 3.074c-6.499 1.3-10.713 7.622-9.414 14.12l1.569 7.845c1.3 6.499 7.622 10.713 14.12 9.414l21.802-4.36C375.925 438.732 384 428.882 384 417.442V374.39c0-38.634-27.529-70.957-64-78.39v-24h16c44.183 0 80 35.817 80 80v112z"/></svg>