<svg xmlns="http://www.w3.org/2000/svg" viewBox="0 0 640 512"><path d="M624 332v8c0 6.627-5.373 12-12 12h-68v68c0 6.627-5.373 12-12 12h-8c-6.627 0-12-5.373-12-12v-68h-68c-6.627 0-12-5.373-12-12v-8c0-6.627 5.373-12 12-12h68v-68c0-6.627 5.373-12 12-12h8c6.627 0 12 5.373 12 12v68h68c6.627 0 12 5.373 12 12zm-209.796 60.045A72.186 72.186 0 0 1 416 408v16c0 13.255-10.745 24-24 24H56c-13.255 0-24-10.745-24-24v-16c0-39.765 32.235-72 72-72h50.196c44.019 21.336 95.521 21.369 139.609 0H344c15.072 0 29.057 4.639 40.62 12.555-1.281-8.932-1.108-24.647 2.376-35.244C373.884 307.334 359.325 304 344 304h-5.753C367.477 274.198 384 234.32 384 192c0-88.353-71.613-160-160-160-88.353 0-160 71.613-160 160 0 42.261 16.481 82.155 45.753 112H104C46.654 304 0 350.654 0 408v16c0 30.879 25.122 56 56 56h336c30.879 0 56-25.121 56-56v-16c0-2.691-.103-5.359-.305-8-11.7 0-21.636-1.141-33.491-7.955zM96 192c0-70.693 57.308-128 128-128s128 57.307 128 128-57.308 128-128 128S96 262.693 96 192z"/></svg>