<svg xmlns="http://www.w3.org/2000/svg" viewBox="0 0 640 512"><path d="M598.711 401.054l-5.657 5.657c-4.686 4.686-12.284 4.686-16.971 0L528 358.627l-48.083 48.083c-4.686 4.686-12.284 4.686-16.971 0l-5.657-5.657c-4.686-4.686-4.686-12.284 0-16.971L505.373 336l-48.083-48.083c-4.686-4.686-4.686-12.284 0-16.971l5.657-5.657c4.686-4.686 12.284-4.686 16.971 0L528 313.373l48.083-48.083c4.686-4.686 12.284-4.686 16.971 0l5.657 5.657c4.686 4.686 4.686 12.284 0 16.971L550.627 336l48.083 48.083c4.687 4.687 4.687 12.285.001 16.971zm-182.796 24.887C414.926 438.287 404.601 448 392 448H56c-13.255 0-24-10.745-24-24v-16c0-39.765 32.235-72 72-72h50.196c44.019 21.336 95.521 21.369 139.608 0H344c28.078 0 52.384 16.082 64.256 39.528 4.721-16.032 14.013-24.307 19.209-29.503C408.492 320.539 378.142 304 344 304h-5.752C367.477 274.198 384 234.32 384 192c0-88.353-71.613-160-160-160-88.353 0-160 71.613-160 160 0 42.261 16.481 82.155 45.752 112H104C46.654 304 0 350.654 0 408v16c0 30.879 25.122 56 56 56h336c21.41 0 40.044-12.083 49.464-29.783-8.87-5.131-20.4-16.589-25.549-24.276zM96 192c0-70.693 57.308-128 128-128s128 57.307 128 128-57.308 128-128 128S96 262.693 96 192z"/></svg>